<?xml version="1.0" encoding="UTF-8" standalone="no"?>
<!-- Created with Inkscape (http://www.inkscape.org/) -->

<svg
   xmlns:dc="http://purl.org/dc/elements/1.1/"
   xmlns:cc="http://creativecommons.org/ns#"
   xmlns:rdf="http://www.w3.org/1999/02/22-rdf-syntax-ns#"
   xmlns:svg="http://www.w3.org/2000/svg"
   xmlns="http://www.w3.org/2000/svg"
   version="1.1"
   width="300"
   height="102.86313"
   id="svg2">
  <defs
     id="defs4">
    <clipPath
       id="clipPath3181">
      <path
         d="m 0,756.06 594,0 0,-756 -594,0 0,756 z"
         id="path3183" />
    </clipPath>
    <clipPath
       id="clipPath3129">
      <path
         d="m 458.61,636.664 c 0,-14.177 8.92,-25.682 19.9,-25.682 10.98,0 19.89,11.505 19.89,25.682 0,14.19 -8.91,25.694 -19.89,25.694 -10.98,0 -19.9,-11.504 -19.9,-25.694"
         id="path3131" />
    </clipPath>
    <clipPath
       id="clipPath3123">
      <path
         d="m 458.61,610.977 39.81,0 0,51.393 -39.81,0 0,-51.393 z"
         id="path3125" />
    </clipPath>
    <clipPath
       id="clipPath3111">
      <path
         d="m 439.3,589.929 78.44,0 0,76.133 -78.44,0 0,-76.133 z"
         id="path3113" />
    </clipPath>
    <clipPath
       id="clipPath3099">
      <path
         d="m 471.78,663.623 c -2.8,-1.157 -5.35,-3.031 -7.53,-5.454 -2.95,-3.27 -5.22,-7.519 -6.5,-12.376 -0.75,-2.864 -1.16,-5.931 -1.16,-9.129 0,-3.186 0.41,-6.265 1.16,-9.129 1.28,-4.834 3.55,-9.095 6.5,-12.364 2.18,-2.411 4.73,-4.284 7.53,-5.454 2.12,-0.883 4.39,-1.36 6.73,-1.36 2.34,0 4.6,0.477 6.72,1.36 2.8,1.17 5.37,3.043 7.55,5.465 2.94,3.258 5.2,7.519 6.48,12.353 0.75,2.864 1.17,5.943 1.17,9.129 0,3.198 -0.42,6.265 -1.17,9.129 -1.28,4.846 -3.54,9.106 -6.48,12.376 -2.18,2.411 -4.75,4.297 -7.55,5.454 -2.12,0.883 -4.38,1.361 -6.72,1.361 -2.34,0 -4.61,-0.478 -6.73,-1.361"
         id="path3101" />
    </clipPath>
    <clipPath
       id="clipPath3093">
      <path
         d="m 456.5,608.277 44.02,0 0,56.799 -44.02,0 0,-56.799 z"
         id="path3095" />
    </clipPath>
    <clipPath
       id="clipPath3077">
      <path
         d="m 439.3,589.929 78.44,0 0,76.133 -78.44,0 0,-76.133 z"
         id="path3079" />
    </clipPath>
    <clipPath
       id="clipPath3065">
      <path
         d="m 454.64,666.062 47.74,0 0,-59.312 -47.74,0 0,59.312 z"
         id="path3067" />
    </clipPath>
    <clipPath
       id="clipPath3039">
      <path
         d="m 0,756.06 594,0 0,-756 -594,0 0,756 z"
         id="path3041" />
    </clipPath>
    <clipPath
       id="clipPath2999">
      <path
         d="m 0,458.661 594,0 0,-458.601 -594,0 0,458.601 z"
         id="path3001" />
    </clipPath>
  </defs>
  <metadata
     id="metadata7">
    <rdf:RDF>
      <cc:Work
         rdf:about="">
        <dc:format>image/svg+xml</dc:format>
        <dc:type
           rdf:resource="http://purl.org/dc/dcmitype/StillImage" />
        <dc:title></dc:title>
      </cc:Work>
    </rdf:RDF>
  </metadata>
  <g
     transform="translate(-92.040443,-79.43315)"
     id="layer1">
    <g
       transform="matrix(2.8908348,0,0,2.8908348,-219.8987,-221.00683)"
       id="g3484">
      <g
         transform="matrix(1.25,0,0,-1.25,199.47125,103.9297)"
         id="g3011">
        <path
           d="m 0,0 c -8.473,0 -10.136,-1.64 -11.959,-7.617 l -3.203,-10.646 c -0.073,-0.258 -0.14,-0.51 -0.202,-0.755 -0.387,-1.52 -0.568,-2.767 -0.568,-3.581 0,-1.046 0.155,-1.98 0.568,-2.779 1.002,-1.943 3.525,-3.087 9.04,-3.087 8.392,0 10.094,1.584 11.675,6.589 l 1.5,4.863 -8.634,0 -0.893,-3.001 c -0.404,-1.167 -0.648,-2.28 -2.392,-2.28 -1.176,0 -1.783,0.917 -1.378,2.113 l 3.366,11.619 c 0.323,1.168 0.687,2.28 2.431,2.28 1.175,0 1.743,-0.889 1.379,-2.113 l -1.095,-3.918 8.675,0 0.689,2.279 c 0.568,1.863 0.77,3.529 0.77,4.392 C 9.769,-2.169 8.674,0 0,0"
           id="path3013"
           style="fill:#ee3425;fill-opacity:1;fill-rule:nonzero;stroke:none" />
      </g>
      <g
         transform="matrix(1.25,0,0,-1.25,180.26625,107.3072)"
         id="g3015">
        <path
           d="m 0,0 c -0.941,1.713 -3.342,2.703 -9.202,2.703 -8.432,0 -10.134,-1.64 -11.918,-7.617 l -3.243,-10.647 c -0.171,-0.606 -0.313,-1.176 -0.426,-1.702 -0.234,-1.093 -0.344,-1.996 -0.344,-2.633 0,-0.831 0.098,-1.591 0.344,-2.269 0.82,-2.251 3.281,-3.597 9.263,-3.597 8.392,0 10.094,1.584 11.675,6.589 l 1.541,4.863 -8.677,0 -0.89,-3.002 c -0.364,-1.167 -0.649,-2.279 -2.392,-2.279 -1.176,0 -1.783,0.917 -1.378,2.112 l 3.406,11.62 c 0.283,1.167 0.688,2.28 2.431,2.28 1.135,0 1.743,-0.89 1.338,-2.113 l -1.094,-3.919 8.674,0 0.689,2.28 C -0.129,-7.09 -0.061,-6.853 0,-6.619 0.414,-5.051 0.568,-3.69 0.568,-2.94 0.568,-1.813 0.452,-0.823 0,0"
           id="path3017"
           style="fill:#ee3425;fill-opacity:1;fill-rule:nonzero;stroke:none" />
      </g>
      <g
         transform="matrix(1.25,0,0,-1.25,135.22,125.36845)"
         id="g3019">
        <path
           d="m 0,0 -4.744,0 6.851,10.453 0.284,0 L 0,0 z m 11.249,16.513 -13.439,0 -19.661,-27.409 10.256,0 3.365,5.393 7.013,0 -1.216,-5.393 9.73,0 3.952,25.21 0.345,2.199"
           id="path3021"
           style="fill:#ee3425;fill-opacity:1;fill-rule:nonzero;stroke:none" />
      </g>
    </g>
  </g>
</svg>
