<?xml version="1.0" encoding="utf-8"?>
<!-- Generator: Adobe Illustrator 26.0.3, SVG Export Plug-In . SVG Version: 6.00 Build 0)  -->
<svg version="1.0" id="katman_1" xmlns="http://www.w3.org/2000/svg" xmlns:xlink="http://www.w3.org/1999/xlink" x="0px" y="0px"
	 viewBox="0 0 800 600" style="enable-background:new 0 0 800 600;" xml:space="preserve">
<style type="text/css">
	.st0{fill:#FFFFFF;}
	.st1{fill-rule:evenodd;clip-rule:evenodd;fill:#F39324;}
	.st2{fill-rule:evenodd;clip-rule:evenodd;fill:#055AA3;}
</style>
<path class="st0" d="M153.7,176.5h492.2c15.1,0,27.3,12.2,27.3,27.3v191.4c0,15.1-12.2,27.3-27.3,27.3H153.7
	c-15.1,0-27.3-12.2-27.3-27.3V203.9C126.4,188.8,138.6,176.5,153.7,176.5z"/>
<path class="st1" d="M644.1,176.5L644.1,176.5H154.3c-15.4,0-27.9,11.7-27.9,26.2v193.4c0,14.5,12.5,26.4,27.9,26.4h489.8
	c15.4,0,28-11.7,28-25.9V203.3C672.2,188.3,659.8,176.5,644.1,176.5L644.1,176.5z M503.6,411.5L503.6,411.5H154.3
	c-8.8,0-16-6.9-16-15.3V202.7c0-8.3,7.2-15,16-15h349.3V411.5L503.6,411.5z M660.3,385.9l-26.7,25.5h-36.9l63.6-60.2V385.9
	L660.3,385.9L660.3,385.9z M660.3,332h-16.1L560,411.5h-36.8l84.2-79.5h-36.7l-55.1,52.1v-34.1l18.8-17.9h-18.8V187.7h128.6
	c9,0,16.1,6.8,16.1,15.6L660.3,332L660.3,332z"/>
<path class="st2" d="M199.9,388.6c25,0,34.9-12.6,34.9-33.6V339h-23.2v20.6c0,5.9-2.9,9.1-11.6,9.1c-8.4,0-11.6-3.2-11.6-9.1V239.4
	c0-5.9,3.2-9.1,11.6-9.1c8.7,0,11.6,3.2,11.6,9.1v20.7h23.2v-16c0-21-9.9-33.6-34.9-33.6c-24.7,0-34.6,12.6-34.6,33.6v110.8
	C165.2,376,175.1,388.6,199.9,388.6z"/>
<path class="st2" d="M268.3,352L268.3,352h24.2l4.5,34.1h22.6L293.8,213H267l-25.8,173.1h22.6L268.3,352L268.3,352z M280.4,252.8
	l9.7,79.1h-19.5L280.4,252.8z"/>
<path class="st2" d="M352,310.8L352,310.8h8c8.7,0,14.5,3.6,14.5,13.7v30.9c0,15.1,0.5,23.1,7.1,30.7h21.1
	c-3.4-6.5-4.9-13.6-4.9-21.1V326c0-11.4-2-18.8-15.7-22.5c11.1-2.2,13.8-9.9,13.8-19.5v-49.2c0-13.1-9.5-21.7-23.7-21.7h-43.3v173.1
	H352L352,310.8L352,310.8z M352,233.1h15.4c3.9,0,5.3,0.9,5.3,4.6v48.7c0,3.7-1.3,4.9-5.3,4.9H352V233.1z"/>
<path class="st2" d="M442.8,388.6c22.1,0,33.2-12.9,33.2-30.2v-24.2c0-10.1-2.9-17.8-9.5-25.2L439.4,277c-4.5-5.2-6.6-9.6-6.6-17.1
	v-20.5c0-5.9,3.2-9.1,10.3-9.1c7.1,0,10.3,3.2,10.3,9.1v23.1h23.2v-21.8c0-17.3-11.3-30.2-33.4-30.2c-22.1,0-33.7,12.9-33.7,30.2
	v24.2c0,10.1,2.9,17.8,9.3,25.2l27.7,31.9c4.5,5.2,6.9,9.6,6.9,17.1v20.5c0,5.9-3.6,9.1-10.7,9.1c-7.1,0-10.6-3.2-10.6-9.1v-23
	h-22.6v21.7C409.6,375.7,420.7,388.6,442.8,388.6z"/>
<path class="st2" d="M579.6,261.4c5.3-10.3,8.3-17.6,8.3-25.9c0-16.1-7.4-22.5-18.9-22.5c-9.2,0-18.9,5.9-18.9,23h12.2
	c0-8.2,2.1-12.6,6.9-12.6c4.9,0,6.6,4.2,6.6,12.6c0,5.8-0.8,10.9-6.6,22l-19.7,38.3v10.4h38.9V296h-26.4L579.6,261.4z"/>
<path class="st2" d="M620.2,214.2L620.2,214.2h-11.5l-23.6,60v10.1h23.2v22.4h11.9v-22.4h6.3v-10.6h-6.3V214.2L620.2,214.2z
	 M608.2,273.7h-12l12-30.8V273.7z"/>
</svg>
