<?xml version="1.0" encoding="utf-8"?>

<!DOCTYPE svg PUBLIC "-//W3C//DTD SVG 1.0//EN" "http://www.w3.org/TR/2001/REC-SVG-20010904/DTD/svg10.dtd">
<svg version="1.0" id="Layer_1" xmlns="http://www.w3.org/2000/svg" xmlns:xlink="http://www.w3.org/1999/xlink" x="0px" y="0px"
	 width="446.731px" height="110px" viewBox="0 0 446.731 110" enable-background="new 0 0 446.731 110" xml:space="preserve">
<g>
	<rect fill="#007838" width="446.731" height="110"/>
	<path fill="#FFFFFF" d="M205.738,76.758c0,6.874-2.333,10.323-5.2,10.862c-0.466,0.075-0.901,0.075-1.396,0
		c-2.984-0.361-6.582-3.471-6.525-9.257c0-11.234,3.039-13.586,6.525-15.022c2.234-0.83,4.592-1.412,6.596-3.361V76.758z
		 M220.158,54.017c0-12.601-6.322-16.191-18.782-16.191c-0.751,0-1.46,0-2.234,0.067c-4.543,0.354-9.227,1.551-13.374,3.61v15.634
		h3.526c1.692-4.886,4.313-15.721,9.848-16.963c0.408-0.106,0.774-0.215,1.16-0.215c4.731,0,5.555,3.708,5.555,8.284v8.615
		c-1.079,1.697-3.584,2.602-6.714,3.528c-7.643,2.273-18.856,4.281-18.856,16.775c0,8.249,6.557,14.188,14.932,14.188
		c1.496,0,2.794-0.14,3.924-0.481c3.634-0.953,6.236-3.327,8.026-8.229h0.144v7.131h16.999v-2.15h-4.152V54.017z M131.469,71.146
		c0,13.17-1.253,16.955-5.322,16.955c-0.74,0-1.383-0.086-2.121-0.325c-3.76-1.252-7.513-6.547-7.513-22.088
		c0.076-15.697,3.753-22.577,7.513-24.361c0.638-0.266,1.307-0.394,1.94-0.394c2.875,0,5.568,2.734,5.502,10.983V71.146z
		 M145.488,21.11H126.97v2.181h4.564v18.212h-0.224c-1.019-1.756-4.012-3.737-7.04-3.737h-0.245
		c-11.197,0.101-19.117,13.497-19.173,27.25c0,13.299,7.913,26.241,18.365,26.241h0.808c4.887-0.28,6.958-3.242,8.219-5.936h0.2
		v4.389h16.163v-2.168h-3.12V21.11z M26.425,23.215h4.568l-0.045,64.221h-4.614v2.169h25.095v-2.169H46.86l0.044-64.221h4.602
		v-2.186H26.425V23.215z M97.082,53.446c0-9.568-3.902-15.681-12.171-15.681c-5.253,0-10.701,3.576-12.396,9.203h-0.177v-7.618
		l-17.472-0.088v2.153l4.209,0.087l-0.055,45.933h-4.154v2.169l20.802,0.105v-2.274h-2.61V57.964c0-9.164,1.893-15.528,6.475-15.448
		c2.495,0,3.488,2.511,3.488,6.784v38.242h-2.594v2.168h20.82v-2.168h-4.165V53.446z M171.465,39.409h-18.192v2.158h4.141v45.975
		h-4.209v2.229h22.439v-2.15h-4.261L171.465,39.409z M164.42,35.799c3.947,0,7.199-3.617,7.199-8.131
		c0-4.453-3.192-8.065-7.199-8.065c-3.919,0-7.146,3.612-7.146,8.065S160.501,35.799,164.42,35.799z M321.13,39.476h-16.666v2.205
		h2.663v29.535c0,9.163-1.885,15.432-6.368,15.432c-2.549,0-3.588-2.523-3.588-6.786V39.476h-16.667v2.205h2.659v14.196
		l-0.033,19.895c0,9.466,3.9,15.687,12.148,15.687c5.223,0,10.716-3.683,12.393-9.232h0.276v7.645h17.381v-2.175h-4.238
		L321.13,39.476z M347.464,21.354l-18.229-0.063v2.171h4.183v64.233h-4.269v2.138l22.456,0.083v-2.141h-4.211L347.464,21.354z
		 M373.595,21.354h-18.207v2.198h4.157v64.223h-4.238v2.141h22.461v-2.141h-4.249L373.595,21.354z M392.285,46.969
		c0-3.211,2.649-6.795,7.851-6.795c7.936,0.073,10.449,6.733,13.163,16.033h3.427l0.071-14.212
		c-4.824-2.397-10.108-3.919-15.423-4.002c-11.594,0-18.714,7.466-18.714,16.879c0,20.302,28.077,14.148,28.077,27.159
		c0,5.118-3.654,7.318-9.624,7.318c-9.8,0-10.759-9.195-13.535-17.624h-4.177v15.13c5.309,3.343,12.27,4.669,16.817,4.669
		c14.37,0,20.179-9.213,20.179-18.124C420.397,54.096,392.285,59.143,392.285,46.969z"/>
	<path fill="#FFFFFF" d="M255.375,87.918c-0.741,0.26-1.377,0.334-2.127,0.334c-4.063,0-5.302-3.788-5.302-16.95V52.076
		c-0.078-8.249,2.611-11,5.501-11c0.639,0,1.303,0.153,1.928,0.4c3.775,1.791,7.436,8.675,7.521,24.38
		C262.897,81.383,259.151,86.679,255.375,87.918 M255.375,37.922h-0.24c-3.023,0-6.022,1.991-7.021,3.741h-0.245V25.55v-4.286
		h-13.901v-0.007h-4.613v2.198h4.563v64.233h-3.118v2.179h16.171v-4.386h0.188c1.267,2.696,3.337,5.649,8.217,5.939h0.798
		c10.476,0,18.374-12.955,18.374-26.249C274.501,51.417,266.576,38.012,255.375,37.922z"/>
</g>
</svg>
